<?xml version="1.0" standalone="no"?>
<!DOCTYPE svg PUBLIC "-//W3C//DTD SVG 20010904//EN"
 "http://www.w3.org/TR/2001/REC-SVG-20010904/DTD/svg10.dtd">
<svg version="1.0" xmlns="http://www.w3.org/2000/svg"
 width="700.000000pt" height="700.000000pt" viewBox="0 0 700.000000 700.000000"
 preserveAspectRatio="xMidYMid meet">
<metadata>
Created by potrace 1.14, written by Peter Selinger 2001-2017
</metadata>
<g transform="translate(0.000000,700.000000) scale(0.100000,-0.100000)"
fill="#000000" stroke="none">
<path d="M2819 6906 c-2 -2 -40 -7 -84 -10 -504 -43 -1012 -231 -1432 -533
-263 -188 -537 -465 -716 -723 -155 -224 -290 -496 -372 -750 -38 -120 -89
-323 -100 -400 -3 -25 -8 -52 -10 -60 -34 -132 -41 -675 -11 -836 2 -11 7 -41
10 -69 34 -254 168 -662 294 -895 86 -160 193 -329 256 -407 8 -10 43 -54 78
-98 81 -103 288 -311 404 -407 471 -388 1027 -615 1634 -665 150 -13 495 -6
587 11 19 4 121 19 138 21 124 12 503 124 653 191 28 13 78 36 110 50 100 46
269 144 398 230 69 47 129 85 134 87 5 1 350 -338 767 -754 712 -710 762 -757
822 -784 121 -53 247 -42 357 30 159 104 215 300 134 473 -27 58 -94 128 -773
807 -409 409 -749 751 -756 759 -10 12 -1 29 47 98 198 277 360 614 445 928
20 73 64 274 72 330 4 25 9 56 11 70 19 133 26 502 11 655 -86 902 -591 1718
-1366 2209 -311 197 -727 355 -1056 402 -22 3 -47 7 -55 9 -8 2 -42 7 -75 11
-33 3 -73 8 -90 11 -35 5 -461 13 -466 9z m496 -485 c44 -6 100 -16 125 -21
25 -5 56 -12 70 -14 147 -24 412 -116 587 -204 250 -124 454 -272 653 -472
208 -209 331 -381 461 -645 143 -293 220 -571 246 -895 12 -148 6 -407 -11
-496 -2 -12 -7 -45 -11 -74 -4 -29 -8 -60 -10 -69 -29 -136 -37 -171 -45 -196
-49 -156 -68 -211 -96 -280 -125 -309 -293 -564 -529 -801 -245 -247 -481
-408 -787 -538 -93 -39 -296 -108 -353 -120 -11 -3 -49 -11 -85 -20 -36 -8
-82 -17 -102 -20 -21 -3 -53 -8 -71 -11 -89 -15 -127 -17 -322 -20 -115 -2
-237 1 -270 5 -33 5 -85 11 -115 15 -30 3 -62 8 -71 11 -10 3 -30 6 -46 8 -89
12 -335 86 -477 146 -593 248 -1070 719 -1314 1300 -76 182 -148 438 -167 595
-4 33 -9 69 -11 80 -21 112 -21 458 0 586 3 19 8 50 10 69 11 79 18 114 50
241 43 174 90 299 181 484 260 532 697 947 1240 1180 157 67 410 141 545 160
25 3 61 9 80 12 142 22 498 24 645 4z"/>
<path d="M1632 4940 c-109 -78 -103 -211 13 -286 28 -18 67 -19 1415 -20 862
0 1396 3 1415 9 40 13 84 54 101 94 34 80 -1 174 -79 212 l-44 21 -1390 0
-1390 0 -41 -30z"/>
<path d="M1671 4117 c-79 -16 -142 -110 -127 -190 9 -50 45 -97 91 -121 39
-20 49 -20 1425 -20 l1386 1 43 23 c69 40 102 113 82 188 -14 52 -42 85 -88
108 -36 17 -107 18 -1405 18 -751 1 -1385 -3 -1407 -7z"/>
<path d="M1673 3274 c-54 -19 -98 -61 -108 -104 -14 -62 -13 -75 6 -119 22
-53 71 -91 127 -100 20 -3 397 -6 837 -5 891 1 846 -2 901 70 25 32 29 47 29
99 0 52 -4 67 -29 99 -55 73 -8 69 -916 70 -583 1 -823 -2 -847 -10z"/>
</g>
</svg>
